<?xml version="1.0" encoding="utf-8"?>
<!-- Generator: Adobe Illustrator 17.1.0, SVG Export Plug-In . SVG Version: 6.00 Build 0)  -->
<!DOCTYPE svg PUBLIC "-//W3C//DTD SVG 1.1 Tiny//EN" "http://www.w3.org/Graphics/SVG/1.1/DTD/svg11-tiny.dtd">
<svg version="1.1" baseProfile="tiny" id="Layer_1" xmlns="http://www.w3.org/2000/svg" xmlns:xlink="http://www.w3.org/1999/xlink"
	 x="0px" y="0px" viewBox="0 0 571 310.3" xml:space="preserve">
<g>
	<path fill="#F4F4F4" d="M76.5,0C70.5,0,12,33.9,12,33.9s-12,6-12,18.6c0,15.3,0,49.2,0,64.5c0,9.3,9.3,15.3,9.3,15.3
		s61.2,37.2,67.2,37.2c6,0,67.2-37.2,67.2-37.2s9.3-6,9.3-15.3c0-15.3,0-49.2,0-64.5c0-12.6-12-18.6-12-18.6S82.6,0,76.5,0L76.5,0z"
		/>
</g>
<g>
	<path fill="#F4F4F4" d="M159.8,140.8c-6,0-64.5,33.9-64.5,33.9s-12,6-12,18.6c0,15.3,0,49.2,0,64.5c0,9.3,9.3,15.3,9.3,15.3
		s61.2,37.2,67.2,37.2c6,0,67.2-37.2,67.2-37.2s9.3-6,9.3-15.3c0-15.3,0-49.2,0-64.5c0-12.6-12-18.6-12-18.6
		S165.8,140.8,159.8,140.8L159.8,140.8z"/>
</g>
<g>
	<path fill="#F4F4F4" d="M243.4,0c-6,0-64.5,33.9-64.5,33.9s-12,6-12,18.6c0,15.3,0,49.2,0,64.5c0,9.3,9.3,15.3,9.3,15.3
		s61.2,37.2,67.2,37.2c6,0,67.2-37.2,67.2-37.2s9.3-6,9.3-15.3c0-15.3,0-49.2,0-64.5c0-12.6-12-18.6-12-18.6S249.4,0,243.4,0
		L243.4,0z"/>
</g>
<g>
	<path fill="#F4F4F4" d="M326.6,140.8c-6,0-64.5,33.9-64.5,33.9s-12,6-12,18.6c0,15.3,0,49.2,0,64.5c0,9.3,9.3,15.3,9.3,15.3
		s61.2,37.2,67.2,37.2c6,0,67.2-37.2,67.2-37.2s9.3-6,9.3-15.3c0-15.3,0-49.2,0-64.5c0-12.6-12-18.6-12-18.6
		S332.6,140.8,326.6,140.8L326.6,140.8z"/>
</g>
<g>
	<path fill="#F4F4F4" d="M410.2,0c-6,0-64.5,33.9-64.5,33.9s-12,6-12,18.6c0,15.3,0,49.2,0,64.5c0,9.3,9.3,15.3,9.3,15.3
		s61.2,37.2,67.2,37.2c6,0,67.2-37.2,67.2-37.2s9.3-6,9.3-15.3c0-15.3,0-49.2,0-64.5c0-12.6-12-18.6-12-18.6S416.2,0,410.2,0
		L410.2,0z"/>
</g>
<g>
	<path fill="#F4F4F4" d="M493.5,140.8c-6,0-64.5,33.9-64.5,33.9s-12,6-12,18.6c0,15.3,0,49.2,0,64.5c0,9.3,9.3,15.3,9.3,15.3
		s61.2,37.2,67.2,37.2c6,0,67.2-37.2,67.2-37.2s9.3-6,9.3-15.3c0-15.3,0-49.2,0-64.5c0-12.6-12-18.6-12-18.6
		S499.5,140.8,493.5,140.8L493.5,140.8z"/>
</g>
<g>
	<g>
		<path fill="#51B46D" d="M239.8,110.1c-15.8,12.5-26.5,31.3-28.3,52.6c5.6,0.9,10.8,3.7,15.3,6.7h97.8c8.4-10,21.1-17,34.8-17.2
			c-3.9-16.9-13.5-31.6-26.6-42l17.5-23.1c1.7-2.2,1.2-5.4-1-7s-5.3-1.3-7,0.9l-17.8,23.4c-11.2-6.6-24.3-10.5-38.2-10.5
			s-27,3.8-38.2,10.5L230.2,81c-1.7-2.2-4.8-2.6-7-1c-2.2,1.7-2.6,4.8-1,7L239.8,110.1z M323.3,128.1c3.9,0,7,3.1,7,7
			c0,3.9-3.1,7-7,7s-7-3.1-7-7C316.3,131.2,319.5,128.1,323.3,128.1z M249.3,128.1c3.9,0,7,3.1,7,7c0,3.9-3.1,7-7,7s-7-3.1-7-7
			C242.3,131.2,245.5,128.1,249.3,128.1z"/>
	</g>
	<path fill="#51B46D" d="M359,231.3c13.7,0,25.5-7.9,30.9-19.9c-13,0-19.3,0-19.7,0c-7.8,0-14.2-6.2-14.2-14s6.3-14,14.2-14H390
		c-5.4-12-17.2-19.9-30.9-19.9c-13,0-24.3,6.9-30,17.9H222.9c-4.4-5-10.8-8.2-17.9-8.2c-13.3,0-24,10.7-24,23.9
		c0,13.3,10.7,24.1,24,24.1c7.1,0,13.5-2.9,17.9-7.9H329C334.8,224.3,346.1,231.3,359,231.3z M205,207c-5.5,0-10-4.5-10-10
		c0-5.5,4.5-10,10-10c5.5,0,10,4.5,10,10C215,202.5,210.6,207,205,207z"/>
</g>
</svg>
