<svg xmlns="http://www.w3.org/2000/svg" width="593" height="320" viewBox="0 0 593 320"><path fill="#F59831" d="M376 80h72v96h-72z"/><path fill="#FAB155" d="M440 168h-72v-80l16-16h56z"/><path fill="#FDCF94" d="M384 72v16h-16z"/><path fill="#F59831" d="M384 88l-16 16v-16zM384 105h40v6h-40zM384 117h40v6h-40zM384 129h40v6h-40zM384 141h32v6h-32zM64 128h72v96h-72z"/><path fill="#FAB155" d="M128 216h-72v-80l16-16h56z"/><path fill="#FDCF94" d="M72 120v16h-16z"/><path fill="#F59831" d="M72 136l-16 16v-16zM72 153h40v6h-40zM72 165h40v6h-40zM72 177h40v6h-40zM72 189h32v6h-32zM256 272h72v48h-72z"/><path fill="#FAB155" d="M320 320h-72v-40l16-16h56z"/><path fill="#FDCF94" d="M264 264v16h-16z"/><path fill="#F59831" d="M264 280l-16 16v-16zM264 297h40v6h-40zM264 309h40v6h-40z"/><circle fill="#F59831" cx="544" cy="96" r="32"/><path fill="#FAB155" d="M558 116h-28v-32l8-8h20z"/><path fill="#FDCF94" d="M538 76v8h-8z"/><circle fill="#F59831" cx="320" cy="200" r="32"/><path fill="#FAB155" d="M336 216c0 2.2-1.8 4-4 4h-24c-2.2 0-4-1.8-4-4v-32c0-2.2 1.8-4 4-4h24c2.2 0 4 1.8 4 4v32z"/><path fill="#FDCF94" d="M332 180h-24c-2.2 0-4 1.8-4 4v4h32v-4c0-2.2-1.8-4-4-4z"/><circle fill="#F59831" cx="464" cy="40" r="24"/><path fill="#FAB155" d="M474 54h-20v-22l6-6h14z"/><path fill="#FDCF94" d="M460 26v6h-6z"/><path stroke="#F59831" stroke-width="8" stroke-miterlimit="10" fill="none" d="M424 296l-44-44 40-40"/><circle fill="#FAB155" cx="428" cy="300" r="20"/><circle fill="#FDCF94" cx="420" cy="292" r="4"/><path fill="#F59831" d="M437.6 282.4c1.6 2.8 2.4 6.1 2.4 9.6 0 11-9 20-20 20-3.5 0-6.7-.9-9.6-2.4 3.4 6.2 10 10.4 17.6 10.4 11 0 20-9 20-20 0-7.6-4.2-14.2-10.4-17.6z"/><circle fill="#FAB155" cx="380" cy="252" r="20"/><circle fill="#FDCF94" cx="372" cy="244" r="4"/><path fill="#F59831" d="M389.6 234.4c1.6 2.8 2.4 6.1 2.4 9.6 0 11-9 20-20 20-3.5 0-6.7-.9-9.6-2.4 3.4 6.2 10 10.4 17.6 10.4 11 0 20-9 20-20 0-7.6-4.2-14.2-10.4-17.6z"/><circle fill="#FAB155" cx="420" cy="212" r="20"/><circle fill="#FDCF94" cx="412" cy="204" r="4"/><path fill="#F59831" d="M429.6 194.4c1.6 2.8 2.4 6.1 2.4 9.6 0 11-9 20-20 20-3.5 0-6.7-.9-9.6-2.4 3.4 6.2 10 10.4 17.6 10.4 11 0 20-9 20-20 0-7.6-4.2-14.2-10.4-17.6z"/><circle fill="#F59831" cx="344" cy="64" r="12"/><circle fill="#F59831" cx="316" cy="36" r="12"/><circle fill="#F59831" cx="316" cy="92" r="12"/><path stroke="#F59831" stroke-width="6" stroke-miterlimit="10" fill="none" d="M316 92l28-28-28-28"/><circle fill="#F59831" cx="220" cy="200" r="12"/><circle fill="#F59831" cx="248" cy="172" r="12"/><circle fill="#F59831" cx="248" cy="228" r="12"/><path stroke="#F59831" stroke-width="6" stroke-miterlimit="10" fill="none" d="M248 228l-28-28 28-28"/><g fill="#F59831"><circle cx="544" cy="28" r="12"/><path d="M511.8 0l30.1 30.1 4.2-4.2-25.9-25.9z"/></g><circle fill="#F59831" cx="104" cy="56" r="24"/><path fill="#FAB155" d="M116 66c0 2.2-1.8 4-4 4h-16c-2.2 0-4-1.8-4-4v-20c0-2.2 1.8-4 4-4h16c2.2 0 4 1.8 4 4v20z"/><path fill="#FDCF94" d="M116 48v-2c0-2.2-1.8-4-4-4h-16c-2.2 0-4 1.8-4 4v2h24z"/><circle fill="#F59831" cx="539" cy="261" r="12"/><circle fill="#F59831" cx="506" cy="228" r="12"/><circle fill="#F59831" cx="511" cy="289" r="12"/><circle fill="#F59831" cx="575" cy="225" r="12"/><circle fill="#F59831" cx="575" cy="175" r="12"/><path stroke="#F59831" stroke-width="6" stroke-miterlimit="10" fill="none" d="M511 289l28-28-33-33M535 265l36-36M575 225v-54"/><path fill="#FAB155" d="M536 232c0 4.4-3.6 8-8 8h-56c-4.4 0-8-3.6-8-8v-64c0-4.4 3.6-8 8-8h56c4.4 0 8 3.6 8 8v64z"/><path fill="#F59831" d="M464 176v56c0 4.4 3.6 8 8 8h56c4.4 0 8-3.6 8-8v-56h-72z"/><circle fill="#F59831" cx="475" cy="168" r="3"/><circle fill="#F59831" cx="483" cy="168" r="3"/><circle fill="#F59831" cx="491" cy="168" r="3"/><path fill="#D57528" d="M472 189h48v6h-48zM480 199h32v6h-32zM480 209h48v6h-48zM480 219h16v6h-16z"/><path fill="#FAB155" d="M280 88c0 4.4-3.6 8-8 8h-56c-4.4 0-8-3.6-8-8v-64c0-4.4 3.6-8 8-8h56c4.4 0 8 3.6 8 8v64z"/><path fill="#F59831" d="M208 32v56c0 4.4 3.6 8 8 8h56c4.4 0 8-3.6 8-8v-56h-72z"/><circle fill="#F59831" cx="219" cy="24" r="3"/><circle fill="#F59831" cx="227" cy="24" r="3"/><circle fill="#F59831" cx="235" cy="24" r="3"/><path fill="#D57528" d="M216 45h48v6h-48zM224 55h32v6h-32zM224 65h48v6h-48zM224 75h16v6h-16z"/><circle fill="#FAB155" cx="280" cy="136" r="8"/><circle fill="#FAB155" cx="168" cy="176" r="8"/><circle fill="#FAB155" cx="464" cy="272" r="8"/><circle fill="#FAB155" cx="488" cy="136" r="8"/><circle fill="#FAB155" cx="168" cy="104" r="8"/><circle fill="#FAB155" cx="8" cy="160" r="8"/><circle fill="#FAB155" cx="392" cy="24" r="8"/><circle fill="#FAB155" cx="360" cy="296" r="8"/><circle fill="#FAB155" cx="568" cy="296" r="8"/><path fill="#F59831" d="M116 301c2.2 0 4.3-.6 6.1-1.7l16.6 16.6c-.7 1.2-1.2 2.6-1.5 4.1h23.6c-.3-1.5-.8-2.8-1.5-4.1l19.6-19.6c1.8 1.1 3.9 1.7 6.1 1.7 6.6 0 12-5.4 12-12 0-5.6-3.8-10.3-9-11.6v-26.8c5.2-1.3 9-6 9-11.6 0-6.6-5.4-12-12-12s-12 5.4-12 12c0 5.6 3.8 10.3 9 11.6v26.8c-5.2 1.3-9 6-9 11.6 0 2.2.6 4.3 1.7 6.1l-19.6 19.6c-1.8-1.1-3.9-1.7-6.1-1.7-2.2 0-4.3.6-6.1 1.7l-16.6-16.6c1.1-1.8 1.7-3.9 1.7-6.1 0-6.6-5.4-12-12-12s-12 5.4-12 12 5.4 12 12 12zM60.2 0h-8.5l-9.7 9.7c-1.7-1.1-3.8-1.7-6-1.7-6.6 0-12 5.4-12 12s5.4 12 12 12 12-5.4 12-12c0-2.2-.6-4.3-1.7-6.1l13.9-13.9z"/></svg>