<svg xmlns="http://www.w3.org/2000/svg" width="502" height="288" viewBox="0 0 502 288"><path fill="#9ED4AE" d="M298.747 78.635l11.314 11.314-141.42 141.42-11.314-11.314z"/><path fill="#73C298" d="M310.06 89.929l11.314 11.314-141.42 141.42-11.314-11.314z"/><path fill="#9ED4AE" d="M321.4 101.3l22.6-45.3-33.9 33.9z"/><path fill="#C5E3C5" d="M310.1 89.9l33.9-33.9-45.3 22.6z"/><path fill="#9ED4AE" d="M155.2 240.6l-7.1-7.1c-1.2-1.2-3.1-1.2-4.2 0l-29.7 29.7c-1.2 1.2-1.2 3.1 0 4.2l9.2 9.2 31.8-31.8c1.2-1.2 1.2-3.1 0-4.2z"/><path fill="#73C298" d="M344 56l-15.1 7.5 7.6 7.6z"/><path fill="#2FA480" d="M337.6 72.2l6.4-16.2-11.3 11.3z"/><path fill="#C5E3C5" d="M157.331 219.985l11.314 11.314-28.284 28.284-11.314-11.314z"/><path fill="#73C298" d="M159.4 244.8l7.1 7.1c1.2 1.2 1.2 3.1 0 4.2l-29.7 29.7c-1.2 1.2-3.1 1.2-4.2 0l-9.2-9.2 31.8-31.8c1.2-1.2 3.1-1.2 4.2 0z"/><path fill="#9ED4AE" d="M168.645 231.421l11.314 11.314-28.284 28.284-11.314-11.314z"/><path stroke="#9ED4AE" stroke-width="4" stroke-miterlimit="10" fill="none" d="M151.7 225.7l11.3 11.3M134.7 242.7l11.3 11.3"/><path stroke="#73C298" stroke-width="4" stroke-miterlimit="10" fill="none" d="M146 254l11.3 11.3M163 237l11.3 11.3"/><path fill="#73C298" d="M94 256h408v32h-408z"/><path fill="#9ED4AE" d="M502 200h-408v56h408v-56zm-392 40c0-4.4 3.6-8 8-8s8 3.6 8 8-3.6 8-8 8-8-3.6-8-8zm360 0c0-4.4 3.6-8 8-8s8 3.6 8 8-3.6 8-8 8-8-3.6-8-8z"/><path fill="#73C298" d="M484 200h4v8h-4zM476 200h4v8h-4zM468 200h4v8h-4zM460 200h4v16h-4zM436 200h4v8h-4zM428 200h4v16h-4zM420 200h4v8h-4zM412 200h4v8h-4zM404 200h4v8h-4zM396 200h4v16h-4zM388 200h4v8h-4zM380 200h4v8h-4zM372 200h4v8h-4zM364 200h4v16h-4zM356 200h4v8h-4zM348 200h4v8h-4zM340 200h4v8h-4zM332 200h4v16h-4zM324 200h4v8h-4zM316 200h4v8h-4zM308 200h4v8h-4zM300 200h4v16h-4zM292 200h4v8h-4zM284 200h4v8h-4zM276 200h4v8h-4zM268 200h4v16h-4zM260 200h4v8h-4zM252 200h4v8h-4zM244 200h4v8h-4zM236 200h4v16h-4zM228 200h4v8h-4zM220 200h4v8h-4zM212 200h4v8h-4zM204 200h4v16h-4zM196 200h4v8h-4zM188 200h4v8h-4zM164 200h4v8h-4zM156 200h4v8h-4zM148 200h4v8h-4zM140 200h4v16h-4zM132 200h4v8h-4zM124 200h4v8h-4zM116 200h4v8h-4zM108 200h4v16h-4zM432 200h24v88h-24z"/><path fill="#2FA480" d="M432 256h24v32h-24z"/><path fill="#C5E3C5" d="M440 284c0 2.2-1.8 4-4 4h-88c-2.2 0-4-1.8-4-4v-280c0-2.2 1.8-4 4-4h88c2.2 0 4 1.8 4 4v280z"/><path fill="#9ED4AE" d="M436 0h-88c-2.2 0-4 1.8-4 4v20h96v-20c0-2.2-1.8-4-4-4z"/><path fill="#73C298" d="M360 8l-6 4 6 4z"/><path fill="#9ED4AE" d="M352 32h80v64h-80z"/><path fill="#73C298" d="M394.8 67.6l13.2-2.2-32-25.4v37.5l9.9-6.6 8.9 17.7 8.8-4.5z"/><path fill="#2FA480" d="M385.9 70.9l8.9 17.7 4.5-2.3-23.3-46.3v37.5z"/><path fill="#73C298" d="M352 32h80v4h-80z"/><g fill="#73C298"><path d="M384 118h12v50h-12zM384 160c0 2.2-1.8 4-4 4v4h8v-8h-4zM396 160c0 2.2 1.8 4 4 4v4h-8v-8h4zM372 118c-2.2 0-4 1.8-4 4h-4v-8h8v4zM408 118c2.2 0 4 1.8 4 4h4v-8h-8v4zM364 112h52v6h-52zM428 156v12h-12z"/></g><path fill="#9ED4AE" d="M364 208h56v44h-56z"/><path fill="#73C298" d="M416 212v36h-48v-36h48m4-4h-56v44h56v-44zM428 252v12h-12zM16 96h152v136h-152z"/><path fill="#C5E3C5" d="M16 232h152v56h-152z"/><path fill="#9ED4AE" d="M0 96h152v136h-152z"/><path fill="#C5E3C5" d="M0 232h152v56h-152z"/><g fill="#2FA480"><path d="M22 247.1c0 .8-.2 1.4-.7 1.8s-1.1.7-2 .7h-.5v2.4h-1.9v-7.1h2.5c.9 0 1.6.2 2 .6s.6.9.6 1.6zm-3.3 1h.4c.3 0 .5-.1.7-.2s.3-.4.3-.7c0-.5-.3-.7-.8-.7h-.5v1.6zM27.8 252l-.4-1.3h-2.3l-.4 1.3h-2.1l2.3-7.2h2.6l2.4 7.2h-2.1zm-.8-2.9l-.3-1.2c-.1-.3-.2-.6-.3-1s-.2-.7-.2-.9c0 .2-.1.4-.2.8s-.3 1.1-.6 2.3h1.6zM37.7 252h-2.5l-2.6-5c.1.8.1 1.4.1 1.8v3.2h-1.7v-7.1h2.5l2.6 5c0-.7-.1-1.3-.1-1.7v-3.2h1.7v7zM42.7 252h-1.9v-5.6h-1.7v-1.6h5.4v1.6h-1.7v5.6zM52.5 248.4c0 1.2-.3 2.1-.9 2.7s-1.5.9-2.6.9-2-.3-2.6-.9-.9-1.5-.9-2.7c0-1.2.3-2.1.9-2.7.6-.6 1.5-.9 2.6-.9s2 .3 2.6.9.9 1.5.9 2.7zm-4.9 0c0 1.4.5 2.1 1.4 2.1.5 0 .9-.2 1.1-.5s.4-.9.4-1.6c0-.7-.1-1.2-.4-1.6s-.6-.5-1.1-.5c-1 0-1.4.7-1.4 2.1zM60.9 252h-2.5l-2.6-5c.1.8.1 1.4.1 1.8v3.2h-1.7v-7.1h2.5l2.6 5c0-.7-.1-1.3-.1-1.7v-3.2h1.7v7zM66.9 252h-4.2v-7.1h4.2v1.5h-2.3v1.1h2.1v1.5h-2.1v1.3h2.3v1.7z"/></g><g fill="#2FA480"><path d="M20.6 264h-2v-5.1c-.1.1-.3.3-.4.5l-.8.7-1-1.2 2.5-2h1.7v7.1zM28.1 262.6h-.8v1.4h-1.9v-1.4h-2.8v-1.4l3-4.3h1.8v4.3h.8v1.4zm-2.7-1.4v-1.7999999999999998h-.1c-.1.3-.2.5-.4.7l-.8 1.2h1.3zM34.4 262.6h-.8v1.4h-1.9v-1.4h-2.8v-1.4l3-4.3h1.8v4.3h.8v1.4zm-2.7-1.4v-1.7999999999999998h-.1c-.1.3-.2.5-.4.7l-.8 1.2h1.3z"/></g><path fill="#2FA480" d="M152 96h4v136h-4z"/><path fill="#9ED4AE" d="M152 232h4v56h-4z"/><path fill="#73C298" d="M168 200h16v56h-16z"/><path fill="#2FA480" d="M168 256h16v32h-16zM180 200h4v8h-4zM172 200h4v16h-4zM452 200h4v8h-4zM444 200h4v8h-4z"/></svg>