<?xml version="1.0" encoding="utf-8"?>
<!-- Generator: Adobe Illustrator 17.1.0, SVG Export Plug-In . SVG Version: 6.00 Build 0)  -->
<!DOCTYPE svg PUBLIC "-//W3C//DTD SVG 1.1 Tiny//EN" "http://www.w3.org/Graphics/SVG/1.1/DTD/svg11-tiny.dtd">
<svg version="1.1" baseProfile="tiny" id="Layer_1" xmlns="http://www.w3.org/2000/svg" xmlns:xlink="http://www.w3.org/1999/xlink"
	 x="0px" y="0px" viewBox="0 0 571 310.3" xml:space="preserve">
<g>
	<path fill="#F4F4F4" d="M76.5,0C70.5,0,12,33.9,12,33.9s-12,6-12,18.6c0,15.3,0,49.2,0,64.5c0,9.3,9.3,15.3,9.3,15.3
		s61.2,37.2,67.2,37.2c6,0,67.2-37.2,67.2-37.2s9.3-6,9.3-15.3c0-15.3,0-49.2,0-64.5c0-12.6-12-18.6-12-18.6S82.6,0,76.5,0L76.5,0z"
		/>
</g>
<g>
	<path fill="#F4F4F4" d="M159.8,140.8c-6,0-64.5,33.9-64.5,33.9s-12,6-12,18.6c0,15.3,0,49.2,0,64.5c0,9.3,9.3,15.3,9.3,15.3
		s61.2,37.2,67.2,37.2s67.2-37.2,67.2-37.2s9.3-6,9.3-15.3c0-15.3,0-49.2,0-64.5c0-12.6-12-18.6-12-18.6S165.8,140.8,159.8,140.8
		L159.8,140.8z"/>
</g>
<g>
	<path fill="#F4F4F4" d="M243.4,0c-6,0-64.5,33.9-64.5,33.9s-12,6-12,18.6c0,15.3,0,49.2,0,64.5c0,9.3,9.3,15.3,9.3,15.3
		s61.2,37.2,67.2,37.2s67.2-37.2,67.2-37.2s9.3-6,9.3-15.3c0-15.3,0-49.2,0-64.5c0-12.6-12-18.6-12-18.6S249.4,0,243.4,0L243.4,0z"
		/>
</g>
<g>
	<path fill="#F4F4F4" d="M326.6,140.8c-6,0-64.5,33.9-64.5,33.9s-12,6-12,18.6c0,15.3,0,49.2,0,64.5c0,9.3,9.3,15.3,9.3,15.3
		s61.2,37.2,67.2,37.2s67.2-37.2,67.2-37.2s9.3-6,9.3-15.3c0-15.3,0-49.2,0-64.5c0-12.6-12-18.6-12-18.6S332.6,140.8,326.6,140.8
		L326.6,140.8z"/>
</g>
<g>
	<path fill="#F4F4F4" d="M410.2,0c-6,0-64.5,33.9-64.5,33.9s-12,6-12,18.6c0,15.3,0,49.2,0,64.5c0,9.3,9.3,15.3,9.3,15.3
		s61.2,37.2,67.2,37.2s67.2-37.2,67.2-37.2s9.3-6,9.3-15.3c0-15.3,0-49.2,0-64.5c0-12.6-12-18.6-12-18.6S416.2,0,410.2,0L410.2,0z"
		/>
</g>
<g>
	<path fill="#F4F4F4" d="M493.5,140.8c-6,0-64.5,33.9-64.5,33.9s-12,6-12,18.6c0,15.3,0,49.2,0,64.5c0,9.3,9.3,15.3,9.3,15.3
		s61.2,37.2,67.2,37.2c6,0,67.2-37.2,67.2-37.2s9.3-6,9.3-15.3c0-15.3,0-49.2,0-64.5c0-12.6-12-18.6-12-18.6
		S499.5,140.8,493.5,140.8L493.5,140.8z"/>
</g>
<g>
	<g>
		<path fill="#F9845B" d="M202.1,123.1c0-8.7,8.7-8.7,8.7-8.7h149.5c0,0,8.7,0,8.7,8.7s0,84,0,92.7s-8.7,8.7-8.7,8.7
			s-140.8,0-149.5,0s-8.7-8.7-8.7-8.7V123.1z"/>
	</g>
	<g>
		<path fill="#F9845B" d="M319.4,110.9H309V97.3c0-0.2,0-0.4,0-0.6c0-0.1,0-0.3,0-0.5l-45.8,0c-0.1,0,0,0-0.1,0
			c-0.7,0-1.6,0.3-1.8,0.5l0,0c0,0-0.1,0.2-0.1,0.6v13.7h-10.4V97.3c0-3.2,1.1-6,3.2-8.1c3.4-3.4,8.2-3.5,9.3-3.5h46.6
			c3.6,0,5.8,1.6,7,3c2.7,3.1,2.7,7.3,2.5,8.8V110.9z"/>
	</g>
	<g>
		<rect x="220.3" y="104" fill="#F9845B" width="15.6" height="7"/>
	</g>
	<g>
		<rect x="334.2" y="104" fill="#F9845B" width="15.6" height="7"/>
	</g>
</g>
</svg>
