<?xml version="1.0" encoding="utf-8"?>
<!-- Generator: Adobe Illustrator 17.1.0, SVG Export Plug-In . SVG Version: 6.00 Build 0)  -->
<!DOCTYPE svg PUBLIC "-//W3C//DTD SVG 1.1//EN" "http://www.w3.org/Graphics/SVG/1.1/DTD/svg11.dtd">
<svg version="1.1" id="Layer_1" xmlns="http://www.w3.org/2000/svg" xmlns:xlink="http://www.w3.org/1999/xlink" x="0px" y="0px"
	 viewBox="0 0 399 315.4" enable-background="new 0 0 399 315.4" xml:space="preserve">
<g>
	<path fill="#F4F4F4" d="M53.5,0C49.3,0,8.4,23.7,8.4,23.7S0,27.9,0,36.7c0,10.7,0,34.4,0,45.1c0,6.5,6.5,10.7,6.5,10.7
		s42.8,26,47,26s47-26,47-26s6.5-4.2,6.5-10.7c0-10.7,0-34.4,0-45.1c0-8.8-8.4-13-8.4-13S57.7,0,53.5,0L53.5,0z"/>
</g>
<g>
	<path fill="#F4F4F4" d="M111.7,98.4c-4.2,0-45.1,23.7-45.1,23.7s-8.4,4.2-8.4,13c0,10.7,0,34.4,0,45.1c0,6.5,6.5,10.7,6.5,10.7
		s42.8,26,47,26s47-26,47-26s6.5-4.2,6.5-10.7c0-10.7,0-34.4,0-45.1c0-8.8-8.4-13-8.4-13S115.9,98.4,111.7,98.4L111.7,98.4z"/>
</g>
<g>
	<path fill="#F4F4F4" d="M170.2,0c-4.2,0-45.1,23.7-45.1,23.7s-8.4,4.2-8.4,13c0,10.7,0,34.4,0,45.1c0,6.5,6.5,10.7,6.5,10.7
		s42.8,26,47,26c4.2,0,47-26,47-26s6.5-4.2,6.5-10.7c0-10.7,0-34.4,0-45.1c0-8.8-8.4-13-8.4-13S174.4,0,170.2,0L170.2,0z"/>
</g>
<g>
	<path fill="#F4F4F4" d="M228.4,98.4c-4.2,0-45.1,23.7-45.1,23.7s-8.4,4.2-8.4,13c0,10.7,0,34.4,0,45.1c0,6.5,6.5,10.7,6.5,10.7
		s42.8,26,47,26c4.2,0,47-26,47-26s6.5-4.2,6.5-10.7c0-10.7,0-34.4,0-45.1c0-8.8-8.4-13-8.4-13S232.6,98.4,228.4,98.4L228.4,98.4z"
		/>
</g>
<g>
	<path fill="#F4F4F4" d="M286.8,0c-4.2,0-45.1,23.7-45.1,23.7s-8.4,4.2-8.4,13c0,10.7,0,34.4,0,45.1c0,6.5,6.5,10.7,6.5,10.7
		s42.8,26,47,26s47-26,47-26s6.5-4.2,6.5-10.7c0-10.7,0-34.4,0-45.1c0-8.8-8.4-13-8.4-13S291.1,0,286.8,0L286.8,0z"/>
</g>
<g>
	<path fill="#F4F4F4" d="M53.5,196.9c-4.2,0-45.1,23.7-45.1,23.7s-8.4,4.2-8.4,13c0,10.7,0,34.4,0,45.1c0,6.5,6.5,10.7,6.5,10.7
		s42.8,26,47,26s47-26,47-26s6.5-4.2,6.5-10.7c0-10.7,0-34.4,0-45.1c0-8.8-8.4-13-8.4-13S57.7,196.9,53.5,196.9L53.5,196.9z"/>
</g>
<g>
	<path fill="#F4F4F4" d="M170.2,196.9c-4.2,0-45.1,23.7-45.1,23.7s-8.4,4.2-8.4,13c0,10.7,0,34.4,0,45.1c0,6.5,6.5,10.7,6.5,10.7
		s42.8,26,47,26c4.2,0,47-26,47-26s6.5-4.2,6.5-10.7c0-10.7,0-34.4,0-45.1c0-8.8-8.4-13-8.4-13S174.4,196.9,170.2,196.9L170.2,196.9
		z"/>
</g>
<g>
	<path fill="#F4F4F4" d="M286.8,196.9c-4.2,0-45.1,23.7-45.1,23.7s-8.4,4.2-8.4,13c0,10.7,0,34.4,0,45.1c0,6.5,6.5,10.7,6.5,10.7
		s42.8,26,47,26s47-26,47-26s6.5-4.2,6.5-10.7c0-10.7,0-34.4,0-45.1c0-8.8-8.4-13-8.4-13S291.1,196.9,286.8,196.9L286.8,196.9z"/>
</g>
<g>
	<path fill="#F4F4F4" d="M345,98.4c-4.2,0-45.1,23.7-45.1,23.7s-8.4,4.2-8.4,13c0,10.7,0,34.4,0,45.1c0,6.5,6.5,10.7,6.5,10.7
		s42.8,26,47,26c4.2,0,47-26,47-26s6.5-4.2,6.5-10.7c0-10.7,0-34.4,0-45.1c0-8.8-8.4-13-8.4-13S349.3,98.4,345,98.4L345,98.4z"/>
</g>
<g>
	<g>
		<path fill="#E15258" d="M228.2,138.3c0.1,0,0.1,0,0.2,0h-57.6l-0.2-0.2c0.1,0.2,0.1,0.2,0.2,0.2H228.2z"/>
		<path fill="#E15258" d="M271.2,128l-43,9.6l-28.7,77.7l-28.7-77.7l-43-9.6c0-0.2,0-0.3,0-0.5l-11-2.4c-0.2,1-0.3,2-0.3,3
			c0,4,0,13.2,36.3,55.9c8.6,10.1,17.6,20.1,24.9,27.5c12.6,12.9,16.7,15.2,21.8,15.2c5.1,0,9.1-2.3,21.7-15
			c7.3-7.4,16.3-17.3,24.9-27.3c36.3-42.3,36.3-51.6,36.3-55.6c0-1.1-0.1-2.3-0.3-3.4l-11,2.4C271.1,127.8,271.1,127.9,271.2,128z"
			/>
	</g>
	<g>
		<path fill="#E15258" d="M116.8,125.1l11,2.4c1.2-11.8,43.3-24.8,51.3-27.3c-1,3.4-10.5,36.1-8.3,38.1h57.4c0.1,0,0.1,0,0.2-0.2
			c0,0.1-0.1,0.2-0.2,0.2h0.2c1.3-5-8.6-34.6-9.6-37.9c8,2.5,50.2,15.9,52.4,27.6l11-2.6c0.1,0.5,0.2,1,0.2,1.5
			c-1-10.2-11.3-18.8-33.7-28.2c-13.8-5.8-27.5-9.3-28-9.5l-1.6,0.1h-1.7h-37h-1.6l-1.6-0.2c-0.6,0.2-13.9,3.8-27.5,9.5
			c-22.1,9.3-32.2,17.6-33.1,27.9C116.7,126.1,116.7,125.5,116.8,125.1z M170.6,136.8l0.2,0.2C170.7,137,170.7,137,170.6,136.8z
			 M180.4,100.3h37c0,0,0.1,0,0.3,0h-37.6C180.3,100.3,180.4,100.3,180.4,100.3z"/>
	</g>
</g>
</svg>
